PathFileType	4	(X/Y/Z)	/Users/niels/Desktop/University/Third Semester/Perception and Action/Exam/Gymnastics Motion Tracking/Code for Gym Tracking/Analyzed Data/Webcam_Backflip/id4_2_baseline_Sports2D/id4_2_baseline_Sports2D_px_person00.trc
DataRate	CameraRate	NumFrames	NumMarkers	Units	OrigDataRate	OrigDataStartFrame	OrigNumFrames
29.81132075471698	29.81132075471698	7	22	m	29.81132075471698	0	159
Frame#	Time	Hip			RHip			RKnee			RAnkle			RBigToe			RSmallToe			RHeel			LHip			LKnee			LAnkle			LBigToe			LSmallToe			LHeel			Neck			Head			Nose			RShoulder			RElbow			RWrist			LShoulder			LElbow			LWrist		
		X1	Y1	Z1	X2	Y2	Z2	X3	Y3	Z3	X4	Y4	Z4	X5	Y5	Z5	X6	Y6	Z6	X7	Y7	Z7	X8	Y8	Z8	X9	Y9	Z9	X10	Y10	Z10	X11	Y11	Z11	X12	Y12	Z12	X13	Y13	Z13	X14	Y14	Z14	X15	Y15	Z15	X16	Y16	Z16	X17	Y17	Z17	X18	Y18	Z18	X19	Y19	Z19	X20	Y20	Z20	X21	Y21	Z21	X22	Y22	Z22
0	0.0	0.9024841627474337	-0.5773001881595524	0.0	0.9013558688613278	-0.5784389531877381	0.0	0.9837952910269128	-0.6526295901897947	0.0	0.9443479898436227	-0.7517875551543933	0.0	0.9860274327792519	-0.7664654528147576	0.0	0.9747586036818151	-0.7709755749754234	0.0	0.9330837719650293	-0.7630467662693715	0.0	0.9036413998503765	-0.5750342946600052	0.0	0.983799824435561	-0.6503613978806314	0.0	0.9443530846746524	-0.7461446051217122	0.0	0.98604255876919	-0.7619546680876647	0.0	0.9803999009466626	-0.7597114630411625	0.0	0.924059509254376	-0.7596801305645119	0.0	1.0095166005158305	-0.48154309398811246	0.0	1.0658482678223322	-0.43198894782676034	0.0	1.0602133428863463	-0.4590057063039454	0.0	0.9993746015559819	-0.4905817792902841	0.0	0.9306722816435459	-0.5052952709389412	0.0	0.8653912640164073	-0.4996749182680872	0.0	0.9982814152446504	-0.4860469682723245	0.0	0.9329471652534749	-0.5030086051252328	0.0	0.878934367733822	-0.5030242429213996	0.0
1	0.03354430379746835	0.9038429578140664	-0.5957065830726468	0.0	0.9026432603858849	-0.5969609195853242	0.0	0.9846752683748837	-0.6724922540482163	0.0	0.9445955732659362	-0.7702213630471676	0.0	0.9838704426548732	-0.7853322234601247	0.0	0.9737835189607882	-0.7894216296996343	0.0	0.9334470886282219	-0.7811960566529651	0.0	0.904808383447197	-0.5938855425950212	0.0	0.9838931153233534	-0.6696875466026507	0.0	0.9445167658346026	-0.7655489231852142	0.0	0.9859098332533511	-0.7823379632740842	0.0	0.9785087197036035	-0.7805732082124043	0.0	0.9261988842688798	-0.777237753477433	0.0	1.0039975903671219	-0.49158876600939033	0.0	1.053987326436722	-0.4381147973074218	0.0	1.0518570009992458	-0.4662117146528227	0.0	0.9941528051430693	-0.5042406064684689	0.0	0.9493512452485774	-0.5396023015168219	0.0	0.9132760503598073	-0.5553098400267722	0.0	0.9925106985167925	-0.49877052973844643	0.0	0.9509463823814552	-0.5338267945282354	0.0	0.9234411322583364	-0.5509161189966425	0.0
2	0.0670886075949367	0.9055904987818312	-0.6140934411722135	0.0	0.904049590837768	-0.6154205432837381	0.0	0.9849312511093427	-0.692755158371422	0.0	0.9448959911957884	-0.788862735420855	0.0	0.9821092443429716	-0.8039895793179915	0.0	0.9731307630754568	-0.8077842893685934	0.0	0.9338888157651896	-0.7994678445281042	0.0	0.9067147180530274	-0.6126881948025298	0.0	0.9836033546443207	-0.6895582879373799	0.0	0.9447602294246301	-0.7851454055712165	0.0	0.9854777075649597	-0.8023310002101183	0.0	0.9764993088565364	-0.8007770015520351	0.0	0.9281256138315267	-0.7953399483113965	0.0	0.9979816802056698	-0.5012827038278374	0.0	1.041021093234523	-0.44376896994984033	0.0	1.0426058853026603	-0.47308301294955174	0.0	0.9883132337473564	-0.5167686372147315	0.0	0.9687868659831979	-0.5673409749978534	0.0	0.9614891399149026	-0.5975920229926084	0.0	0.9870788800191035	-0.5107985931526997	0.0	0.9702734901974702	-0.5586633921844393	0.0	0.9685212883906796	-0.5868021481727488	0.0
3	0.10063291139240506	0.9081992232394802	-0.6314563911490125	0.0	0.9060206958415965	-0.6327698471418562	0.0	0.9842166910848856	-0.7126999811471171	0.0	0.9453103725708768	-0.8070194207917089	0.0	0.9810466868164288	-0.8216682048178756	0.0	0.9729476612389639	-0.8253485486260913	0.0	0.9344246947579473	-0.817239370248091	0.0	0.9099585083149831	-0.6303807166547041	0.0	0.9826416574180102	-0.7093903322897247	0.0	0.9451385681924545	-0.8041350037718148	0.0	0.9845698984725354	-0.8209465055012856	0.0	0.9742794399977792	-0.8192996237159703	0.0	0.9297143254392269	-0.8133639426603342	0.0	0.991259540698873	-0.509820525572626	0.0	1.0262627355352332	-0.44816375916444	0.0	1.0320085135807802	-0.4787818633878801	0.0	0.9816707793880707	-0.5268551908828697	0.0	0.9883147182827507	-0.5828743079744609	0.0	1.007374251639706	-0.6161383177231569	0.0	0.9822214772776078	-0.520914925159898	0.0	0.9902780667588349	-0.5720309926964348	0.0	1.0115237810837059	-0.6011164260740559	0.0
4	0.1341772151898734	0.9121216762988628	-0.6458488890795926	0.0	0.9092367913427597	-0.6469811131202838	0.0	0.9824368118451644	-0.7304224969411831	0.0	0.9458176182074848	-0.8231534955919236	0.0	0.9805370368870323	-0.8370648356009014	0.0	0.9729319801323799	-0.8407715091172776	0.0	0.9349809269627555	-0.8331245940997847	0.0	0.9147182982298339	-0.6449229285265278	0.0	0.9808529735069347	-0.7273394659992779	0.0	0.945587891792815	-0.8208832283324111	0.0	0.9830926034735664	-0.8367701753685228	0.0	0.9718422508022887	-0.834825426646991	0.0	0.9309605133441176	-0.8295885526192086	0.0	0.9840025108431584	-0.5159083350658552	0.0	1.0097716126188994	-0.4503325618636903	0.0	1.0202711998018206	-0.4820522812921652	0.0	0.9746404140609691	-0.5330925500855661	0.0	1.0055468904498628	-0.5829082702260382	0.0	1.044916602248213	-0.606626864361759	0.0	0.9778043606177593	-0.527416224797043	0.0	1.0079385777895	-0.5705399117911746	0.0	1.0463027252514523	-0.5897153676537416	0.0
5	0.16772151898734178	0.9176126316685339	-0.6547668211021196	0.0	0.9143070443128776	-0.6554725558495516	0.0	0.9798192481973514	-0.7432995346041955	0.0	0.9463416010822968	-0.8351927206031868	0.0	0.9798612240724323	-0.8485818353180017	0.0	0.9724020717849641	-0.8523257307833328	0.0	0.9355244214498164	-0.8452071807685672	0.0	0.9207129095950175	-0.6537455836528552	0.0	0.9783424604463091	-0.740703947403559	0.0	0.9459822752584471	-0.8333142022308927	0.0	0.9810539874753025	-0.848316828213033	0.0	0.9693563379870351	-0.8459036402886938	0.0	0.9319787868881161	-0.8417817806888765	0.0	0.9763975381134591	-0.517830995683456	0.0	0.9921230057375888	-0.4490011615900728	0.0	1.0077881116020284	-0.4812711768427604	0.0	0.967795145843593	-0.5339539500249796	0.0	1.0172463217266934	-0.5672294271843457	0.0	1.0674394766059039	-0.5720139970929885	0.0	0.9730609982173921	-0.5284188423054936	0.0	1.0192550639851885	-0.554208335178092	0.0	1.0661469719992867	-0.5555322262086066	0.0
6	0.20126582278481012	0.9246390188954564	-0.6557877316288853	0.0	0.921495970970288	-0.6558459944110859	0.0	0.9770320592780539	-0.7487793082047279	0.0	0.9468753949117112	-0.8410011879113021	0.0	0.9782001860843288	-0.8547134827789228	0.0	0.9707780225871487	-0.8583193572610972	0.0	0.9361555966252043	-0.8514999513984214	0.0	0.9274670561535109	-0.6544773804861539	0.0	0.9755958084595587	-0.7467610284661365	0.0	0.9463020214638704	-0.8393450056041801	0.0	0.978704683208127	-0.8543225590267397	0.0	0.9672011935787798	-0.8512190480428509	0.0	0.9329385102195878	-0.8478574090030524	0.0	0.9683578492841418	-0.5138327780561527	0.0	0.9738794874847918	-0.4426280436003297	0.0	0.9946413782126055	-0.4747260092044718	0.0	0.9613312136016458	-0.5280392950192734	0.0	1.02088945681988	-0.5383634760212426	0.0	1.071249242454593	-0.5207367014937663	0.0	0.9669601487199818	-0.5224741102140369	0.0	1.0214916042155857	-0.5262794158242142	0.0	1.0675306003136964	-0.5069832598357561	0.0
